<svg width="32" height="32" viewBox="0 0 32 32" fill="none" xmlns="http://www.w3.org/2000/svg">
  <defs>
    <linearGradient id="grad" x1="0%" y1="0%" x2="100%" y2="100%">
      <stop offset="0%" stop-color="#C084FC"/>
      <stop offset="100%" stop-color="#7C3AED"/>
    </linearGradient>
  </defs>
  <g transform="translate(16 16) scale(1.22) translate(-10 -10)">
    <path fill="url(#grad)" d="M6 4.5V6H4a2 2 0 0 0-2 2v2h4v-.5a.5.5 0 0 1 1 0v.5h6v-.5a.5.5 0 0 1 1 0v.5h4.003V8a2 2 0 0 0-2-2H14V4.5A1.5 1.5 0 0 0 12.5 3h-5A1.5 1.5 0 0 0 6 4.5M7.5 4h5a.5.5 0 0 1 .5.5V6H7V4.5a.5.5 0 0 1 .5-.5m10.503 7H14v.5a.5.5 0 1 1-1 0V11H7v.5a.5.5 0 0 1-1 0V11H2v4a2 2 0 0 0 2 2h12.003a2 2 0 0 0 2-2z"/>
  </g>
</svg>
